<mxfile host="app.diagrams.net" modified="2022-08-26T06:34:37.206Z" agent="5.0 (Windows NT 10.0; Win64; x64) AppleWebKit/537.36 (KHTML, like Gecko) Chrome/104.0.0.0 Safari/537.36" etag="ZIE46zJlopqsuQclHkQl" version="20.2.7" type="github">
  <diagram id="JKDEqcZaugigSQyGBY7k" name="Страница 1">
    <mxGraphModel dx="1160" dy="430" grid="1" gridSize="10" guides="1" tooltips="1" connect="1" arrows="1" fold="1" page="1" pageScale="1" pageWidth="827" pageHeight="1169" math="0" shadow="0">
      <root>
        <mxCell id="0" />
        <mxCell id="1" parent="0" />
        <mxCell id="iP1hhKZzJx9KnMsA9t_e-1" value="InitObj()" style="shape=umlLifeline;perimeter=lifelinePerimeter;whiteSpace=wrap;html=1;container=1;collapsible=0;recursiveResize=0;outlineConnect=0;" vertex="1" parent="1">
          <mxGeometry x="40" y="200" width="100" height="920" as="geometry" />
        </mxCell>
        <mxCell id="iP1hhKZzJx9KnMsA9t_e-2" value="grls.dbo.CIAcrOrg" style="shape=umlLifeline;perimeter=lifelinePerimeter;whiteSpace=wrap;html=1;container=1;collapsible=0;recursiveResize=0;outlineConnect=0;" vertex="1" parent="1">
          <mxGeometry x="250" y="200" width="110" height="920" as="geometry" />
        </mxCell>
        <mxCell id="iP1hhKZzJx9KnMsA9t_e-3" value="grls.dbo.PCLPStat" style="shape=umlLifeline;perimeter=lifelinePerimeter;whiteSpace=wrap;html=1;container=1;collapsible=0;recursiveResize=0;outlineConnect=0;" vertex="1" parent="1">
          <mxGeometry x="400" y="200" width="110" height="920" as="geometry" />
        </mxCell>
        <mxCell id="iP1hhKZzJx9KnMsA9t_e-4" value="urlContentType == 3" style="shape=umlFrame;whiteSpace=wrap;html=1;width=130;height=30;" vertex="1" parent="1">
          <mxGeometry x="-20" y="730" width="480" height="200" as="geometry" />
        </mxCell>
        <mxCell id="iP1hhKZzJx9KnMsA9t_e-7" value="CIAcrOrgGuid = this.urlStatementGuid" style="html=1;verticalAlign=bottom;endArrow=block;rounded=0;labelPosition=right;verticalLabelPosition=middle;align=left;" edge="1" parent="1" source="iP1hhKZzJx9KnMsA9t_e-1" target="iP1hhKZzJx9KnMsA9t_e-2">
          <mxGeometry x="-0.907" width="80" relative="1" as="geometry">
            <mxPoint x="90" y="340" as="sourcePoint" />
            <mxPoint x="170" y="340" as="targetPoint" />
            <Array as="points">
              <mxPoint x="200" y="280" />
            </Array>
            <mxPoint as="offset" />
          </mxGeometry>
        </mxCell>
        <mxCell id="iP1hhKZzJx9KnMsA9t_e-8" value="PCLPStatGUID = this.urlStatementGuid" style="html=1;verticalAlign=bottom;endArrow=block;rounded=0;labelPosition=right;verticalLabelPosition=middle;align=left;" edge="1" parent="1" source="iP1hhKZzJx9KnMsA9t_e-1" target="iP1hhKZzJx9KnMsA9t_e-3">
          <mxGeometry x="-0.9453" width="80" relative="1" as="geometry">
            <mxPoint x="90" y="330" as="sourcePoint" />
            <mxPoint x="305" y="330" as="targetPoint" />
            <Array as="points">
              <mxPoint x="200.5" y="330" />
            </Array>
            <mxPoint as="offset" />
          </mxGeometry>
        </mxCell>
      </root>
    </mxGraphModel>
  </diagram>
</mxfile>
